<svg width="22" height="22" viewBox="0 0 22 22" fill="none" xmlns="http://www.w3.org/2000/svg">
<path d="M18.2897 7.26008C18.3009 7.42171 18.3009 7.58333 18.3009 7.74644C18.3009 12.7165 14.5173 18.4485 7.59877 18.4485V18.4455C5.55503 18.4485 3.55375 17.8631 1.83325 16.7593C2.13043 16.7951 2.42909 16.8129 2.72851 16.8137C4.42219 16.8152 6.06746 16.2469 7.39991 15.2004C5.79039 15.1699 4.37899 14.1205 3.88593 12.5884C4.44975 12.6971 5.03069 12.6748 5.58408 12.5236C3.82932 12.1691 2.56688 10.6273 2.56688 8.83683C2.56688 8.82045 2.56688 8.80481 2.56688 8.78917C3.08974 9.08038 3.67515 9.24201 4.27397 9.25988C2.62125 8.15534 2.11181 5.95668 3.10984 4.23767C5.01952 6.58753 7.83711 8.01606 10.8618 8.16726C10.5586 6.86087 10.9727 5.49192 11.9499 4.57358C13.4648 3.14952 15.8475 3.22251 17.2715 4.73669C18.1139 4.5706 18.9213 4.26151 19.6601 3.82356C19.3793 4.69424 18.7917 5.43383 18.0067 5.9038C18.7522 5.81591 19.4806 5.6163 20.1666 5.31168C19.6616 6.0684 19.0255 6.72755 18.2897 7.26008Z" fill="#173817"/>
</svg>
