<svg width="22" height="22" viewBox="0 0 22 22" fill="none" xmlns="http://www.w3.org/2000/svg">
<path fill-rule="evenodd" clip-rule="evenodd" d="M2.75 10.7526C2.75 6.15434 6.35253 2.75006 11 2.75006C15.6475 2.75006 19.25 6.15434 19.25 10.7526C19.25 15.3508 15.6475 18.7551 11 18.7551C10.1652 18.7551 9.36436 18.6448 8.61187 18.4379C8.4656 18.3977 8.31005 18.4091 8.17124 18.4703L6.53373 19.1931C6.10539 19.3822 5.62187 19.0776 5.60752 18.6095L5.56259 17.142C5.55706 16.9612 5.47572 16.7922 5.34096 16.6716C3.73571 15.2361 2.75 13.1577 2.75 10.7526ZM8.46935 9.24802L6.04591 13.0929C5.81334 13.4618 6.26689 13.8776 6.61433 13.614L9.21751 11.6383C9.39359 11.5047 9.63694 11.504 9.81377 11.6366L11.7413 13.0823C12.3197 13.5161 13.1452 13.3638 13.5307 12.7521L15.9541 8.90727C16.1866 8.53828 15.7331 8.12248 15.3857 8.38615L12.7825 10.3618C12.6064 10.4954 12.3631 10.4961 12.1862 10.3635L10.2587 8.91786C9.68033 8.48407 8.85484 8.63637 8.46935 9.24802Z" fill="#173817"/>
</svg>
