<svg width="644" height="644" viewBox="0 0 644 644" fill="none" xmlns="http://www.w3.org/2000/svg">
<path d="M383.075 307.026C377.713 305.183 369.758 302.119 366.451 300.817L369.207 295.442L369.946 290.314L404.259 299.125L456.825 309.95L481.796 314.872L542.744 337.434L578.883 349.93L624.897 364.512C625.688 365.341 627.279 367.363 627.316 368.818C627.352 370.273 625.829 370.998 625.063 371.179L589.372 365.055L535.679 355.411L484.285 345.224L458.706 339.074L423.945 323.89C412.556 319.037 388.437 308.868 383.075 307.026Z" fill="#FF97B3"/>
<path d="M340.44 254.075L344.065 272.042L339.278 277.059L316.174 231.002L304.257 204.935L292.103 180.981L285.054 164.738L279.116 146.708L273.248 119.898L269.829 98.606L264.866 73.3348L259.757 53.8135L254.412 36.4057L253.92 28.2155L255.846 24.3313L259.109 27.7517L293.049 102.875L309.195 136.325L321.977 173.924L326.774 192.528L340.44 254.075Z" fill="#FF97B3"/>
<path d="M307.393 331.001L338.132 300.649L343.708 304.133L342.627 307.131L323.132 348.087L310.284 365.907L280.36 394.161L206.167 466.329L199.851 467.973L214.313 445.353L261.645 385.17L307.393 331.001Z" fill="#FF97B3"/>
<path d="M348.499 272.5L342.499 276L338 281.5L334.5 292.5L338 302L348.499 306H360L368 299L370 290.5L368 277.5L360 272.5H348.499Z" fill="#FF97B3" stroke="black"/>
<path d="M367.47 274.987C360.452 269.32 348.292 271.31 348.292 271.31L347.876 271.39C346.473 271.661 345.55 270.955 345.108 269.27C344.607 267.359 344.089 265.447 343.571 263.535C342.179 258.38 340.731 253.058 339.58 247.763C338.842 244.395 337.965 241.005 337.125 237.725C335.728 232.35 334.292 226.792 333.446 221.195C332.131 212.511 330.335 203.732 328.607 195.237C327.883 191.705 327.167 188.164 326.469 184.624C326.368 184.092 326.268 183.56 326.176 183.02C325.872 181.314 325.558 179.564 324.994 177.888C322.403 170.053 319.519 161.609 315.927 151.302L315.701 150.658C314.332 146.716 312.915 142.654 311.225 138.767C309.618 135.074 307.836 131.376 306.11 127.807C305.284 126.087 304.449 124.377 303.631 122.648C301.609 118.378 299.587 114.108 297.556 109.828C292.565 99.319 287.418 88.4494 282.458 77.7219C279.31 70.9212 276.219 63.9488 273.221 57.2161C271.21 52.6908 269.199 48.1656 267.163 43.6669C266.029 41.1636 264.783 38.6662 263.582 36.2522C263.032 35.1424 262.473 34.0232 261.923 32.9134C261.276 29.712 259.333 27.1954 257.615 24.9678C256.94 24.1008 256.269 23.6991 255.618 23.7815C254.933 23.8629 254.391 24.4682 253.992 25.5609C252.632 29.2906 252.487 32.8533 253.553 36.4585C254.466 39.5669 255.338 42.7381 256.181 45.8081C257.235 49.6502 258.327 53.6209 259.521 57.5034C262.556 67.4206 264.897 77.4646 266.469 87.3597C267.276 92.4537 268.215 97.6153 269.124 102.603C269.62 105.362 270.133 108.122 270.611 110.881C271.109 113.713 271.573 116.563 272.044 119.404C273.009 125.214 273.995 131.225 275.222 137.097C277.281 146.987 279.579 154.941 282.467 162.145C285.401 169.469 288.541 176.652 291.776 183.492C293.44 186.995 295.285 190.476 297.067 193.836C298.601 196.725 300.191 199.706 301.641 202.683C304.229 207.991 306.802 213.425 309.284 218.675C311.693 223.777 314.183 229.036 316.698 234.196C323.093 247.298 329.711 260.562 336.108 273.381L336.776 274.704C338.023 277.202 338.009 279.071 336.721 281.152C334.463 284.811 333.592 288.91 334.209 293.023C334.502 295.001 335.03 296.959 335.587 299.018C335.818 299.9 336.067 300.801 336.299 301.756L335.468 302.627C334.637 303.498 333.705 304.475 332.772 305.453C331.55 306.696 330.337 307.949 329.124 309.202C326.053 312.364 322.88 315.633 319.669 318.737C317.927 320.413 316.079 322.049 314.291 323.624C311.805 325.817 309.242 328.072 306.911 330.517C302.891 334.729 299.027 339.229 295.281 343.586C293.887 345.217 292.483 346.838 291.087 348.451C289.455 350.33 287.841 352.247 286.235 354.155L284.807 355.857C282.83 358.211 280.844 360.555 278.848 362.89C274.216 368.344 269.433 373.995 264.832 379.642C257.554 388.563 250.496 397.572 243.869 406.036C233.995 418.653 225.44 429.718 217.679 439.857C213.138 445.798 208.618 451.903 204.241 457.802L200.007 463.514C199.426 464.292 198.888 465.061 198.693 465.959C198.544 466.584 198.344 468.33 199.09 468.935C199.881 469.568 201.348 469.772 202.164 469.366L202.715 469.089C204.838 468.044 207.03 466.965 208.8 465.372C214.477 460.302 220.157 454.967 225.685 449.51C230.602 444.657 235.56 439.685 240.347 434.874C246.06 429.13 251.968 423.199 257.845 417.433C264.105 411.303 270.583 405.206 276.84 399.303C279.365 396.919 281.89 394.554 284.406 392.16C286.276 390.388 288.137 388.606 290.008 386.833C294.809 382.25 299.781 377.507 304.776 372.984C312.324 366.159 318.657 358.097 323.625 349.031L324.473 347.467C326.52 343.729 328.634 339.883 330.493 335.948C333.716 329.141 336.9 322.169 339.967 315.412L342.731 309.349C343.102 308.548 343.403 307.726 343.721 306.85C343.826 306.552 343.94 306.245 344.063 305.929C344.413 306.012 344.746 306.094 345.07 306.185C345.99 306.42 346.866 306.645 347.748 306.752C348.865 306.874 350.003 307.142 351.097 307.382C353.67 307.964 356.331 308.567 359.085 307.667C361.372 306.918 363.482 305.681 365.508 303.876C366.963 302.576 368.366 302.304 370.063 302.962C373.183 304.189 376.32 305.379 379.448 306.56C384.869 308.617 390.484 310.733 395.929 313.045C403.837 316.393 411.813 319.988 419.524 323.467C422.561 324.837 425.598 326.207 428.643 327.569C430.862 328.56 433.081 329.588 435.291 330.626C439.73 332.7 444.335 334.844 448.958 336.632C467.976 343.98 487.705 347.755 506.778 351.392C517.84 353.513 529.123 355.385 540.022 357.209C543.727 357.823 547.424 358.445 551.13 359.076C570.262 362.314 586.947 365.475 602.129 368.732C606.968 369.769 611.967 370.281 616.793 370.788C618.695 370.987 620.588 371.176 622.474 371.41L622.78 371.446C623.862 371.586 625.093 371.738 625.864 370.893L626.499 370.19L625.565 370.064C623.46 369.777 621.347 369.518 619.235 369.259C614.608 368.694 609.824 368.105 605.146 367.237C596.603 365.66 587.935 363.915 579.546 362.215C574.403 361.179 569.277 360.143 564.134 359.144C553.088 356.987 543.32 355.139 534.297 353.503C532.129 353.115 529.92 352.825 527.781 352.538C525.589 352.25 523.31 351.959 521.098 351.542C510.684 349.621 500.506 347.716 490.331 345.583C481.17 343.642 473.588 341.846 466.472 339.879C452.415 336.025 439.255 330.088 429.362 325.335C410.211 316.158 395.378 309.801 381.246 304.695C378.813 303.815 376.448 302.865 373.942 301.856C372.931 301.455 371.912 301.043 370.883 300.641L371.806 298.249L372.525 298.433C373.269 298.627 373.97 298.792 374.663 299.003C378.967 300.262 383.281 301.531 387.586 302.79C394.74 304.885 401.895 306.998 409.049 309.075C430.02 315.164 453.787 322.07 477.238 328.82C497.094 334.541 516.958 340.235 536.822 345.929L576.314 357.264C584.125 359.514 591.954 361.764 599.773 363.987C599.913 364.028 600.054 364.086 600.203 364.136C601.055 364.461 602.224 364.903 603.648 363.374L604.207 362.787L575.18 354.386C508.675 335.126 439.899 315.209 372.22 296.017L372.79 293.059C374.095 293.396 375.383 293.75 376.645 294.095C379.712 294.928 382.613 295.711 385.588 296.359C392.955 297.93 400.339 299.466 407.714 300.993C415.483 302.612 423.261 304.223 431.022 305.888C438.023 307.395 445.13 308.996 452.001 310.563C456.176 311.509 460.36 312.464 464.543 313.382C466.81 313.891 469.093 314.347 471.376 314.802C475.854 315.692 480.49 316.623 484.953 317.923C490.844 319.637 496.748 321.825 502.458 323.953C504.084 324.554 505.709 325.156 507.325 325.748C512.736 327.722 518.147 329.732 523.541 331.742C528.865 333.713 534.189 335.703 539.521 337.647L542.156 338.614C551.054 341.861 560.25 345.226 569.345 348.323C583.882 353.286 598.431 358.067 612.498 362.679C615.578 363.685 618.603 364.562 621.82 365.481C623.276 365.905 624.739 366.319 626.213 366.761L627.063 367.013L626.745 366.147C626.081 364.295 624.636 363.935 623.471 363.657C623.279 363.615 623.086 363.555 622.902 363.504C621.736 363.171 620.58 362.866 619.415 362.569C617.549 362.089 615.613 361.588 613.761 360.962C602.474 357.184 589.088 352.664 575.391 347.907C565.54 344.478 555.712 340.895 546.208 337.44C538.584 334.657 530.951 331.865 523.335 329.054C516.29 326.47 509.262 323.886 502.218 321.319C500.707 320.767 499.196 320.196 497.676 319.616C493.476 318.022 489.135 316.369 484.754 315.227C476.572 313.085 468.18 311.275 460.06 309.536L455.064 308.459C447.582 306.838 439.953 305.241 432.586 303.705C428.667 302.885 424.747 302.066 420.827 301.246L413.067 299.617C403.985 297.706 394.58 295.722 385.348 293.725C382.215 293.036 379.061 292.238 376.013 291.46C374.717 291.132 373.429 290.796 372.151 290.487C371.895 288.956 371.992 287.636 372.492 286.4C372.424 283.024 371.513 278.264 367.391 274.939L367.47 274.987ZM338.376 272.578C338.113 272.142 337.868 271.743 337.648 271.317C336.493 268.968 335.32 266.619 334.156 264.279C331.204 258.341 328.16 252.218 325.249 246.145C322.199 239.766 319.183 233.37 316.168 226.975C312.389 218.944 308.464 210.634 304.543 202.508C302.936 199.171 301.156 195.865 299.43 192.652C297.704 189.421 295.914 186.087 294.299 182.741C290.699 175.271 287.501 168.523 284.888 161.519C280.437 149.619 277.145 136.712 274.537 120.914L273.326 113.601C271.53 102.76 269.69 91.5535 267.751 80.5446C266.908 75.7505 265.728 71.0657 264.388 65.8566C262.353 57.9647 260.205 50.0972 258.157 42.7249C257.574 40.6198 256.877 38.5207 256.199 36.4952L255.654 34.8746C254.702 31.9932 254.808 29.2961 255.972 26.4275C257.603 27.6219 258.577 29.3181 259.524 30.968C260.024 31.8302 260.535 32.7382 261.147 33.5578L261.174 33.586C261.39 34.2213 261.606 34.8568 261.805 35.4917C262.332 37.0934 262.879 38.7504 263.571 40.3294L266.332 46.6177C272.157 59.8685 278.176 73.5717 284.257 86.9847C288.514 96.3702 292.982 105.834 297.311 114.994C298.81 118.164 300.317 121.344 301.807 124.523C302.708 126.427 303.625 128.313 304.552 130.208C306.112 133.389 307.717 136.672 309.14 139.959C311.367 145.101 313.285 150.418 314.869 154.94C317.363 162.051 319.775 169.023 321.875 176.023C322.825 179.187 323.474 182.498 324.12 185.699C324.35 186.901 324.598 188.102 324.846 189.304C325.111 190.525 325.316 191.753 325.53 192.99C325.683 193.879 325.845 194.778 326.015 195.667L326.606 198.739C328.567 208.882 330.528 219.025 332.524 229.169C332.954 231.379 333.54 233.576 334.032 235.514C336.45 244.767 338.876 254.028 341.328 263.282C341.76 264.908 341.946 266.045 340.833 267.136L333.856 246.848C328.72 231.901 323.585 217.009 318.458 202.108C316.036 195.09 313.606 188.081 311.158 181.072C306.073 166.446 300.801 151.322 295.83 136.389C287.405 111.08 274.397 73.8595 271.803 70.358L270.712 68.8775L270.984 70.6911C271.067 71.2225 271.113 71.6616 271.167 72.0553C271.254 72.7692 271.312 73.3272 271.499 73.8615C277.484 91.0483 283.477 108.226 289.471 125.422C295.549 142.849 301.618 160.266 307.696 177.693C311.279 187.972 314.827 198.25 318.393 208.528C321.856 218.539 325.319 228.532 328.8 238.544C331.971 247.662 335.249 256.893 338.541 265.978C339.402 268.355 339.978 270.524 338.371 272.696C338.353 272.677 338.335 272.64 338.325 272.613L338.376 272.578ZM340.059 310.389C338.386 314.11 336.663 317.957 334.833 321.656C330.552 330.34 325.682 340.185 320.595 349.677C315.549 359.088 308.185 366.638 300.983 373.399C289.344 384.324 274.025 398.77 258.809 413.537C252.259 419.896 245.715 426.493 239.374 432.858C234.697 437.573 229.859 442.438 225.061 447.167C220.449 451.719 215.628 456.211 210.968 460.551L207.558 463.732C205.789 465.38 203.713 466.9 200.607 466.97C200.641 466.916 200.665 466.853 200.69 466.808C201.014 466.169 201.312 465.575 201.708 465.048C205.177 460.437 208.647 455.808 212.107 451.187C220.923 439.399 230.05 427.209 239.24 415.423C249.181 402.699 259.602 390.052 269.694 377.806L274.102 372.455C284.313 360.067 292.73 350.102 300.589 341.096C304.844 336.224 309.469 331.545 314.364 327.201C322.4 320.053 329.48 312.97 336.021 305.552C336.579 304.91 337.173 304.307 337.818 303.649C338.055 303.401 338.293 303.152 338.547 302.885L340.871 304.628L339.683 305.817C334.259 311.277 329.259 316.986 325.073 321.842C319.23 328.64 313.388 335.457 307.563 342.274C303.446 347.077 299.337 351.89 295.22 356.692C291.728 360.765 288.227 364.827 284.726 368.89C281.546 372.579 278.367 376.267 275.205 379.956C267.984 388.368 260.781 396.78 253.56 405.191L237.808 423.556C227.907 435.095 218.007 446.653 208.133 458.22C207.642 458.79 207.347 459.512 207.06 460.206C206.962 460.441 206.855 460.684 206.756 460.919C206.722 460.954 206.688 460.99 206.663 461.035L205.83 462.152L206.323 462.029C205.022 463.242 203.712 464.447 202.411 465.66C202.491 465.745 202.581 465.838 202.661 465.923L206.4 462.003L207.404 461.757L207.495 461.568C207.495 461.568 207.536 461.487 207.553 461.451C207.695 461.246 207.856 461.04 207.998 460.834C208.419 460.244 208.848 459.645 209.321 459.11C210.21 458.122 211.117 457.135 212.024 456.166C213.218 454.876 214.464 453.551 215.631 452.197C221.34 445.614 227.04 439.003 232.722 432.391L293.268 362.148C297.209 357.587 301.158 353.016 305.09 348.445C312.387 339.954 319.693 331.454 326.963 322.934C330.699 318.549 334.459 314.047 338.092 309.696L339.655 307.832C339.908 307.529 340.073 307.169 340.23 306.818C340.296 306.673 340.362 306.529 340.437 306.394L341.225 304.856L342.183 305.576C341.457 307.162 340.748 308.747 340.04 310.333L340.059 310.389ZM367.795 296.888C366.042 301.593 360.909 306.167 354.521 305.817C349.894 305.57 345.599 303.664 341.339 301.795C340.433 301.396 339.645 300.854 338.983 300.161C337.356 298.455 336.473 295.859 336.288 292.305C336.015 286.989 338.329 282.82 340.89 279.087C345.642 274.238 355.602 269.888 362.937 275.354C365.384 277.173 367.36 279.618 369.332 283.266C369.697 283.952 369.863 285.014 369.747 285.905C369.613 286.832 369.506 287.768 369.399 288.705C369.078 291.496 368.741 294.379 367.795 296.907L367.795 296.888Z" fill="black"/>
</svg>
